<svg xmlns="http://www.w3.org/2000/svg" viewBox="0 0 93.04712 93.04712"><defs><style>.cls-1{fill:#50b2ff;}.cls-2{fill:#3ca9ff;}.cls-3{fill:#27a1ff;}.cls-4{fill:#1398ff;}.cls-5{fill:#008efd;}.cls-6{fill:#0083e9;}.cls-7{fill:#fff;}</style></defs><g id="Calque_2" data-name="Calque 2"><g id="Calque_1-2" data-name="Calque 1"><path class="cls-1" d="M93.04712,46.52356A46.38085,46.38085,0,0,0,77.53925,11.864v69.3191A46.38085,46.38085,0,0,0,93.04712,46.52356Z"/><path class="cls-2" d="M62.03143,2.65778V90.38934a46.51419,46.51419,0,0,0,15.50782-9.20623V11.864A46.51386,46.51386,0,0,0,62.03143,2.65778Z"/><path class="cls-3" d="M46.52356,0V93.04712a46.429,46.429,0,0,0,15.50787-2.65778V2.65778A46.429,46.429,0,0,0,46.52356,0Z"/><path class="cls-4" d="M31.01569,2.66113v87.7248a46.38249,46.38249,0,0,0,15.50787,2.66119V0A46.38246,46.38246,0,0,0,31.01569,2.66113Z"/><path class="cls-5" d="M15.50787,11.85583V81.19128a46.52191,46.52191,0,0,0,15.50782,9.19465V2.66113A46.52221,46.52221,0,0,0,15.50787,11.85583Z"/><path class="cls-6" d="M0,46.52356A46.40018,46.40018,0,0,0,15.50787,81.19128V11.85583A46.40022,46.40022,0,0,0,0,46.52356Z"/><path class="cls-7" d="M24.24244,56.66849c2.38144,4.32854,6.61417,9.05159,14.13006,12.38514.03921-.2468.08606-.48893.13665-.72883q.09921-.47074.22808-.92353.16353-.57831.37555-1.12676.18391-.47853.40432-.93415c.10787-.22436.22093-.44542.34241-.66124A51.26863,51.26863,0,0,1,24.24244,56.66849Z"/><path class="cls-7" d="M77.14649,48.61348c-.43309-4.09318-3.39666-4.4041-5.25984-4.47252-2.65707-.09751-10.092,2.82775-10.092,2.82775-5.80169,2.29146-14.96741,2.09644-14.96741,2.09644-14.62613-.09757-17.57573-5.948-17.60014-8.2394a2.9629,2.9629,0,0,1,1.98674-2.90085c9.94577,3.91246,12.54189-3.76626,12.54189-3.76626-3.80281.87756-5.00943-1.71856-6.43548-2.9618-1.426-1.24317-4.09533-.54842-4.09533-.54842.585-2.15741.03655-3.14468-1.5723-5.52144-1.60885-2.3767.03655-5.11914.03655-5.11914s-7.58121,1.95019-7.63,8.09315a9.1752,9.1752,0,0,0,2.43772,5.85044,16.60985,16.60985,0,0,0-5.31422,11.74969,22.42729,22.42729,0,0,0,1.78553,8.29759,50.95736,50.95736,0,0,0,18.05984,9.66956l.86036.23864-.494.74363c-1.63288,2.45821-2.23145,5.61641-1.787,9.40708A1.399,1.399,0,0,0,41.198,75.28277,16.85557,16.85557,0,0,0,46.50359,73.549a17.79413,17.79413,0,0,0,5.81851-4.92286,26.34992,26.34992,0,0,0,4.54953-9.94881l.11825-.6121.52737-.00683a15.33761,15.33761,0,0,0,7.13554-1.87032c1.82909-1.0015,3.67147-2.09936,5.47591-3.26324,1.8769-1.21042,3.03306-2.05737,3.04457-2.06584a4.27074,4.27074,0,0,1,4.02824-.43992A10.88054,10.88054,0,0,0,77.14649,48.61348ZM59.47541,56.13291a1.33806,1.33806,0,1,1,1.338-1.33809A1.33808,1.33808,0,0,1,59.47541,56.13291Z"/><path class="cls-7" d="M76.80162,51.655a2.9631,2.9631,0,0,0-2.85842.24522c-.05134.03782-1.19954.87921-3.11261,2.113-1.83036,1.18057-3.69968,2.2945-5.556,3.31079a16.6291,16.6291,0,0,1-7.23381,2.01487,32.76091,32.76091,0,0,1-1.371,4.189,19.3201,19.3201,0,0,0,2.03764-1.0591c.38528-.21335.747-.46445,1.12043-.70056l.54021-.38332.27058-.19249.26393-.20146c.17554-.13507.35392-.26754.52807-.40545l.51213-.42689c.08574-.07108.17364-.14.2578-.213l.24939-.22245.50246-.44422a20.44956,20.44956,0,0,1-1.81816,1.98352l-.24231.23592c-.08208.07727-.16864.14929-.25312.224l-.51081.44479c-.35537.2781-.70119.57233-1.07389.83057l-.27652.19837c-.09188.06677-.185.13165-.28133.1916l-.573.36972c-.19223.1216-.39237.23-.589.345-.099.05621-.197.1147-.297.16921l-.30377.15682q-.28369.15-.57378.288-.38823.8452-.82033,1.63712a25.12672,25.12672,0,0,0,2.97078-1.29927,25.83119,25.83119,0,0,0,2.68755-1.61492,27.36656,27.36656,0,0,0,2.50507-1.9132,30.10069,30.10069,0,0,0,2.30885-2.17062q.55278-.5711,1.07231-1.17589c.34969-.40033.686-.81281,1.00472-1.2409a20.18216,20.18216,0,0,1-1.79912,2.6586,27.60768,27.60768,0,0,1-2.1464,2.40768A28.13373,28.13373,0,0,1,61.50748,64.141a25.26724,25.26724,0,0,1-2.7014,1.814,22.37213,22.37213,0,0,1-4.40347,1.97049q-.48317.74306-1.0094,1.43a25.087,25.087,0,0,0,3.0688-.95192,26.145,26.145,0,0,0,3.34771-1.553q.81146-.44457,1.59147-.9468.7845-.494,1.53974-1.03615a34.94969,34.94969,0,0,0,5.52219-4.995,32.35078,32.35078,0,0,0,2.34635-2.922c.36321-.50972.71144-1.03121,1.034-1.56889a15.5313,15.5313,0,0,0,.89026-1.66064A17.61159,17.61159,0,0,1,71.112,57.14736a30.16266,30.16266,0,0,1-2.15943,3.13589,34.14561,34.14561,0,0,1-2.53434,2.85607,31.90919,31.90919,0,0,1-2.86815,2.539q-.75672.59062-1.54961,1.13624-.79532.54093-1.62934,1.02508a27.33347,27.33347,0,0,1-3.45951,1.70813q-1.088.43775-2.21615.77158c7.61972-1.29426,16.31915-5.7,21.99013-17.73274a5.08813,5.08813,0,0,0,.307-.8467Z"/></g></g></svg>