<svg xmlns="http://www.w3.org/2000/svg" viewBox="0 0 1080 1080"><defs><style>.cls-1{fill:#0083e9;}.cls-2{fill:#fff;}</style></defs><g id="Calque_2" data-name="Calque 2"><g id="Calque_1-2" data-name="Calque 1"><circle class="cls-1" cx="540" cy="540" r="540"/><path class="cls-2" d="M439.90924,600.00383c-45.13224,2.90231-86.091,20.09129-109.33208,81.33256a17.16817,17.16817,0,0,1-16.41275,11.22682c-12.498,0-51.13937-31.12686-62.15245-38.64139.01125,92.63806,42.67989,174.0606,144.00246,174.0606,85.33729,0,143.9912-49.23823,143.9912-135.2055,0-3.49852-.73119-6.83957-1.09118-10.27063ZM767.118,252.01758c-17.054,0-33.03922,7.54829-45.23347,18.50512C491.93731,475.93516,468.01,480.76111,468.01,541.22617a104.14465,104.14465,0,0,0,9.82064,43.53486l71.79311,59.82384a103.5114,103.5114,0,0,0,25.18723,3.40854c69.86947,0,110.367-51.15063,237.5405-288.49988,8.302-16.14276,15.63654-33.5792,15.63654-51.73559C827.988,275.23616,798.73983,252.01758,767.118,252.01758Z"/></g></g></svg>