<svg xmlns="http://www.w3.org/2000/svg" viewBox="0 0 1080 1080"><defs><style>.cls-1{fill:#6366f1;}.cls-2{fill:#fff;}</style></defs><g id="Calque_2" data-name="Calque 2"><g id="Calque_1-2" data-name="Calque 1"><circle class="cls-1" cx="540" cy="540" r="540"/><path class="cls-2" d="M762.20081,440.67982h0L660.777,339.04227a35.80657,35.80657,0,0,0-50.62191-.07874h0l-.07875.07874-84.85356,84.95482V728.98846l236.978-237.473A35.99781,35.99781,0,0,0,762.20081,440.67982ZM813.20519,611.9956H692.93878l-209.69846,209.811c-2.31735,2.32861-5.06219,4.02723-7.51453,6.17586h337.4794a35.99778,35.99778,0,0,0,35.9978-35.9978V647.99341A35.99778,35.99778,0,0,0,813.20519,611.9956ZM489.225,288.01538a35.99781,35.99781,0,0,0-35.9978-35.9978H309.236a35.99781,35.99781,0,0,0-35.99781,35.9978V719.989a107.99341,107.99341,0,1,0,215.98682,0Zm-107.99341,458.972A26.99835,26.99835,0,1,1,408.22991,719.989,26.99835,26.99835,0,0,1,381.23156,746.98736ZM417.22936,540h-71.9956V468.0044h71.9956Zm0-143.99121h-71.9956v-71.9956h71.9956Z"/></g></g></svg>